<svg width="69" height="75" fill="none" xmlns="http://www.w3.org/2000/svg"><path d="m22.612 17.458-7.659-10.76s-1.803 6.248-.37 15.938l5.587 3.419a38.29 38.29 0 0 1 2.442-8.597Z" fill="#1D4ED8" fill-opacity=".75"/><path d="m14.583 22.636-9.518-5.827s.69 6.806 5.63 15.992l6.65.731a56.893 56.893 0 0 1-2.762-10.896Z" fill="#1D4ED8" fill-opacity=".5"/><path d="M19.808 33.803a20.137 20.137 0 0 1-.115-2.889 38.94 38.94 0 0 1 .477-4.86l-5.587-3.418c.485 3.275 1.341 6.943 2.761 10.896l2.464.271Z" fill="#1D4ED8" fill-opacity=".75"/><path d="M10.694 32.8 0 31.626s2.267 5.71 10.455 12.386l6.19-2.077a65.897 65.897 0 0 1-5.95-9.133Z" fill="#1D4ED8" fill-opacity=".25"/><path d="M20.417 40.668c-.096-.191-.193-.383-.287-.576a63.495 63.495 0 0 1-2.786-6.56l-6.65-.731a65.903 65.903 0 0 0 5.951 9.133l3.772-1.266Z" fill="#1D4ED8" fill-opacity=".5"/><path d="m19.808 33.803-2.464-.27a63.508 63.508 0 0 0 2.786 6.559c.094.194.191.385.287.576l1.014-.34c-.803-2.128-1.382-4.321-1.623-6.525Z" fill="#1D4ED8" fill-opacity=".75"/><path d="M10.455 44.011 1.65 46.967s4.64 4.685 15.88 7.159l3.217-3.294c-4.178-2.264-7.563-4.596-10.292-6.82Z" fill="#1D4ED8" fill-opacity=".15"/><path d="M22.716 48.817a72.432 72.432 0 0 1-6.071-6.883l-6.19 2.077c2.729 2.225 6.114 4.557 10.292 6.821l1.97-2.015Z" fill="#1D4ED8" fill-opacity=".25"/><path d="m20.417 40.668-3.772 1.266a72.43 72.43 0 0 0 6.072 6.883l1.527-1.564a63.133 63.133 0 0 1-3.827-6.585Z" fill="#1D4ED8" fill-opacity=".5"/><path d="M24.244 47.253c-1.034-2.088-1.953-4.65-2.813-6.926l-1.014.341c1.183 2.356 2.42 4.63 3.827 6.585Z" fill="#1D4ED8" fill-opacity=".75"/><path d="M30.232 55.232a87.266 87.266 0 0 1-9.51-4.41l-3.216 3.294c3.696.813 8.362 1.42 13.556 1.51-.192-.115-.638-.27-.83-.394Z" fill="#1D4ED8" fill-opacity=".15"/><path d="m22.716 48.817-1.969 2.015c2.8 1.519 6.761 3.39 10.315 4.795a30.05 30.05 0 0 1-3.302-2.489c-1.516-1.307-3.73-3.007-5.044-4.321Z" fill="#1D4ED8" fill-opacity=".25"/><path d="m17.506 54.116-6.932 7.097s6.93 2.376 19.435-1.444c.243-1.047 1.053-4.142 1.053-4.142-.084-.05-9.86-.698-13.556-1.511Z" fill="#1D4ED8" fill-opacity=".1"/><path d="m24.244 47.253-1.528 1.564a78.32 78.32 0 0 0 4.24 3.936c1.123.97 3.902 2.794 4.105 2.874-.029-.033-4.596-5.04-6.817-8.374Z" fill="#1D4ED8" fill-opacity=".5"/><path d="M35.64 35.62 36.374 0s-8.968 5.913-13.763 17.458L35.64 35.62Zm0 0L22.611 17.458a38.296 38.296 0 0 0-2.442 8.597l15.47 9.565Z" fill="#1D4ED8"/><path d="m35.64 35.62-15.47-9.565a38.806 38.806 0 0 0-.477 4.86c-.033.96.01 1.925.115 2.888L35.64 35.62Z" fill="#1D4ED8"/><path d="m35.64 35.62-15.832-1.817c.241 2.204.82 4.397 1.623 6.524L35.64 35.62Z" fill="#1D4ED8"/><path d="m35.64 35.62-14.21 4.708c.641 2.274 1.638 4.816 2.813 6.925L35.639 35.62Z" fill="#1D4ED8"/><path d="M48.823 25.103c-5.575-.905-11.293 2.59-12.701 8.06l-.483 2.457c-6.493 27.324-6.122 27.536-9.478 35.508-.415.986-2.031 3.764-2.031 3.764s11.967-6.4 15.513-9.183c4.8-3.765 9.085-8.374 9.682-14.269.61-6.028-.62-9.55-1.261-13.718-.407-2.643.682-5.817 1.668-7.293 1.301-1.947 3.276-3.34 5.485-3.326 3.224.019 12.843 1.126 12.843 1.126l-19.237-3.126Z" fill="#1D4ED8"/><path d="M24.219 47.243c1.96 3.295 6.763 8.354 6.843 8.384l4.577-20.007-11.42 11.623Z" fill="#1D4ED8"/></svg>