<svg width="140" height="30" fill="none" xmlns="http://www.w3.org/2000/svg"><path d="M0 29.641h3.732V19.593h6.172c6.28 0 8.936-2.978 8.936-9.33v-.718C18.84 3.158 16.112.36 9.904.36H0V29.64Zm3.732-13.134V3.445h6.28C13.565 3.445 15 4.916 15 8.792v2.189c0 3.911-1.435 5.526-4.988 5.526h-6.28ZM38.866 29.641h3.732V.36h-3.732v13.026H27.85V.36h-3.732V29.64h3.732V16.615h11.017V29.64ZM58.686 30c6.783 0 10.156-4.521 10.156-10.873v-8.29C68.842 4.522 65.469 0 58.686 0c-6.818 0-10.191 4.522-10.191 10.837v8.29C48.495 25.479 51.868 30 58.686 30Zm-6.351-10.299v-9.402c0-4.414 2.153-7.07 6.351-7.07 4.163 0 6.316 2.656 6.316 7.07v9.402c0 4.45-2.153 7.07-6.316 7.07-4.198 0-6.351-2.62-6.351-7.07ZM79.034 29.641h3.732V3.553h7.356V.359H71.678v3.194h7.357V29.64ZM103.136 30c6.783 0 10.156-4.521 10.156-10.873v-8.29C113.292 4.522 109.919 0 103.136 0c-6.818 0-10.191 4.522-10.191 10.837v8.29c0 6.352 3.373 10.873 10.191 10.873Zm-6.352-10.299v-9.402c0-4.414 2.154-7.07 6.352-7.07 4.163 0 6.316 2.656 6.316 7.07v9.402c0 4.45-2.153 7.07-6.316 7.07-4.198 0-6.352-2.62-6.352-7.07ZM119.185 29.641h3.517V7.86l11.806 21.782h3.852l-2.492-4.934-1.324-2.566L122.738.36h-3.553V29.64Z" fill="#273D52"/><circle cx="136.82" cy="2.849" r="2.849" fill="#B35724"/></svg>